<?xml version="1.0" encoding="UTF-8" standalone="no"?>
<!DOCTYPE svg PUBLIC "-//W3C//DTD SVG 1.1//EN" "http://www.w3.org/Graphics/SVG/1.1/DTD/svg11.dtd">
<svg width="100%" height="100%" viewBox="0 0 544 338" version="1.1" xmlns="http://www.w3.org/2000/svg" xmlns:xlink="http://www.w3.org/1999/xlink" xml:space="preserve" xmlns:serif="http://www.serif.com/" style="fill-rule:evenodd;clip-rule:evenodd;stroke-linejoin:round;stroke-miterlimit:2;">
    <g transform="matrix(1,0,0,1,0,-0.299737)">
        <path d="M6,33C6,33 6.012,32.104 6.425,31.064C8.608,25.562 17.01,8.506 34,8L185,8L159,61C159,61 157.334,64.745 154.655,67.543C152.687,69.6 149.968,70.923 148,71C143.355,71.182 77,71 77,71L77,90L154,90C154,90 179.136,90.683 180,114.5L180,201C180,201 178.982,209.214 174.651,215.289C169.768,222.138 161.005,226.944 151,227L0,227L38,163L110,163L110,144L32,144C32,144 6.993,143.445 6,119L6,33Z"/>
    </g>
    <g transform="matrix(1,0,0,1,0,-0.299737)">
        <path d="M16,30C16,30 18.412,12.162 34,12L178,12L154,61L74,61C74,61 72,60.671 72,63L72,94C72,94 71.884,96 74,96L155,96C155,96 176,94.186 176,117L176,197C176,197 175.072,217 156,217L14,217L43,168L118,168C118,168 120,167.977 120,166L120,135C120,135 120.382,133 118,133L35,133C35,133 16.5,133.026 16.5,114.5L16,30Z" style="fill:rgb(229,89,2);"/>
    </g>
    <g transform="matrix(1,0,0,1,0,-0.299737)">
        <path d="M20,113L20,30C20,30 19.084,16 34,16L172,16L152,57L75,57C75,57 68,56.633 68,64L68,93C68,93 68.331,99 74,99L153,99C153,99 172,98.271 172,118L172,195C172,195 172.81,213 154,213L20,213L45,172L117,172C117,172 123,172.02 123,166L123,135C123,135 123.714,130 118,130L37,130C37,130 20,130.017 20,113Z" style="fill:white;"/>
    </g>
    <g transform="matrix(1,0,0,1,0,-0.299737)">
        <path d="M273.831,0.3L213.695,42.429C213.695,42.429 203.094,49.684 203.168,53.098C203.243,56.512 203.168,274.254 203.168,274.254L181.899,274.254C181.899,274.254 176.333,278.818 174.032,282.937C171.731,287.057 145.828,337.786 145.828,337.786L241.461,337.861C241.461,337.861 254.138,338.279 261.931,330.473C261.931,330.473 267.645,324.199 270.356,320.747C270.356,320.747 272.995,316.992 273.598,310.282C273.598,310.282 274.201,294.759 274.062,290.584L273.831,0.3Z"/>
    </g>
    <g transform="matrix(1,0,0,1,0,-0.299737)">
        <path d="M159.178,327.563L183.846,279.235L209.953,279.235C209.953,279.235 214.042,279.327 214.042,275.146L214.042,48.263L269.54,9.123L269.54,306.968C269.54,306.968 269.034,313.411 268.037,314.86C268.037,314.86 263.358,321.961 261.981,322.816C261.981,322.816 256.447,326.854 253.454,327.376C253.454,327.376 250.723,328.065 245.355,327.97L158.981,327.97L159.178,327.563Z" style="fill:rgb(229,89,2);"/>
    </g>
    <g transform="matrix(1,0,0,1,0,-0.299737)">
        <path d="M217.708,49.415L266.18,15.439L266.18,304.004C266.18,304.004 265.611,310.542 264.961,311.469C264.961,311.469 261.76,316.85 260.647,318.056C260.647,318.056 256.797,322.231 253.55,322.742C253.55,322.742 249.375,323.808 246.963,323.855L165.228,323.855L185.894,282.86L209.903,282.86C209.903,282.86 213.562,283.09 215.234,281.018C215.234,281.018 216.906,279.707 217.02,276.23L217.708,49.415Z" style="fill:white;"/>
    </g>
    <g transform="matrix(1,0,0,1,0,-0.299737)">
        <path d="M294.614,235.905L364.051,184.082L364.051,71.664L384.2,71.664L384.2,233.876L454.289,183.067L454.289,71.084L474.076,71.084L474.076,233.804L543.875,184.589L543.875,29.335C543.875,29.335 544.963,9.403 520.537,9.983L301.21,9.983C301.21,9.983 294.288,10.273 294.288,16.905L294.614,235.905Z"/>
    </g>
    <g transform="matrix(1,0,0,1,0,-0.299737)">
        <path d="M304.342,221.101L359.934,181.816L359.934,60.918L394,60.918L394,220.014C394,220.014 450.1,181.599 450.1,181.526L450.1,61.281L481.847,61.281C481.847,61.281 483.929,61.134 483.946,63.38C483.964,65.626 483.946,220.19 483.946,220.19L540.324,182.052L540.324,31.655C540.324,31.655 541.484,12.955 519.957,12.81L304.472,12.81L304.342,221.101Z" style="fill:rgb(229,89,2);"/>
    </g>
    <g transform="matrix(1,0,0,1,0,-0.299737)">
        <path d="M307.981,213.526L356.453,178.305L356.453,57.126L398.016,57.126L398.016,212.96L446.94,179.324L446.94,57.013L482.614,57.013C482.614,57.013 488.361,57.092 488.129,62.983L488.129,213.009L536.551,179.883L536.551,32.232C536.551,32.232 536.86,15.908 519.464,16.053L308.111,16.053L307.981,213.526Z" style="fill:white;"/>
    </g>
</svg>
